# xmcd
#
# Track frame offsets: 
#        150
#        14777
#        25604
#        46793
#        58405
#        74895
#        96349
#        111143
#        125608
#        140610
#        155027
#        172529
#        187416
#        207318
#        222218
#        237012
#        248197
#        272154
#        283936
#        294760
#        314307
#
# Disc length: 4363 seconds
#
# Revision: 0
# Processed by: cddbd v1.5.2PL0 Copyright (c) Steve Scherf et al.
# Submitted via: ExactAudioCopy v0.99pb4
#
DISCID=4b110915
DTITLE=Andy Williams - The Love Songs
DYEAR=1900
DGENRE=Blues
TTITLE0=Can't Take My Eyes Off You
TTITLE1=Can't Get Used To Losing You
TTITLE2=Seasons In Thu Sun
TTITLE3=Strangers In The Night
TTITLE4=Fire And Rain
TTITLE5=You've Got a Friend
TTITLE6=We've Only Just Begun
TTITLE7=Where Do I Begin? (Love Story)
TTITLE8=The Way We Were
TTITLE9=You Are The Sunshine Of My Life
TTITLE10=Touch Me In The Morning
TTITLE11=Without You
TTITLE12=Solitaire
TTITLE13=Unchained Melody
TTITLE14=Can't Help Falling In Love
TTITLE15=Hawaiian Wedding Song
TTITLE16=I Won't Last A Day Without You
TTITLE17=Music to Watch Girls By
TTITLE18=Butterfly
TTITLE19=Killing me softly
TTITLE20=My Each Day
EXTD=
EXTT0=
EXTT1=
EXTT2=
EXTT3=
EXTT4=
EXTT5=
EXTT6=
EXTT7=
EXTT8=
EXTT9=
EXTT10=
EXTT11=
EXTT12=
EXTT13=
EXTT14=
EXTT15=
EXTT16=
EXTT17=
EXTT18=
EXTT19=
EXTT20=
PLAYORDER=
